<?xml version="1.0" standalone="no"?><!DOCTYPE svg PUBLIC "-//W3C//DTD SVG 1.1//EN" "http://www.w3.org/Graphics/SVG/1.1/DTD/svg11.dtd"><svg t="1700453465447" class="icon" viewBox="0 0 1024 1024" version="1.1" xmlns="http://www.w3.org/2000/svg" p-id="18165" xmlns:xlink="http://www.w3.org/1999/xlink" width="200" height="200"><path d="M859.796945 971.636364H164.203055c-61.672727 0-111.839418-50.171345-111.839419-111.839419V164.203055c0-61.672727 50.171345-111.839418 111.839419-111.839419h695.589236c61.668073 0 111.839418 50.171345 111.839418 111.839419v695.589236c0.004655 61.672727-50.166691 111.844073-111.834764 111.844073zM164.203055 108.218182c-30.868945 0-55.984873 25.115927-55.984873 55.984873v695.589236c0 30.8736 25.115927 55.984873 55.984873 55.984873h695.589236c30.8736 0 55.984873-25.115927 55.984873-55.984873V164.203055c0-30.868945-25.115927-55.984873-55.984873-55.984873H164.203055z" fill="#b2dcf2" p-id="18166"></path><path d="M639.1808 290.094545l31.264582-1.5872c1.410327 0 2.648436 0.712145 3.714327 2.117819 0.344436 0.3584 0.875055 1.242764 1.5872 2.648436 0 59.708509 0.176873 116.056436 0.530618 169.048436 0.344436 52.996655 0.795927 103.251782 1.321891 150.765382 0.530618 47.518255 0.795927 85.229382 0.795927 113.138037 0 3.5328-2.117818 5.301527-6.358109 5.301527h-45.046691c-4.235636 0-6.358109-2.299345-6.358109-6.884073v-42.3936H392.238545v46.633891c0 6.358109-0.186182 9.714036-0.530618 10.072436-1.061236 1.405673-3.360582 2.117818-6.888727 2.117819h-18.813673c-6.185891 0-12.106473 0.172218-17.752436 0.525963-5.296873 0-9.537164-0.353745-12.716218-1.061236-3.179055-0.707491-4.240291-4.417164-3.179055-11.129018 1.410327-6.711855 2.294691-53.438836 2.648437-140.166982 0.349091-86.723491 0.530618-184.850618 0.530618-294.372073 0-6.358109 2.122473-9.537164 6.358109-9.537164l49.812945 4.240291 247.472873 0.521309z m-18.548364 52.461382H391.703273l0.530618 117.643637h228.393891V342.555927z m0 287.753309v-117.643636H392.238545v117.643636h228.393891z" fill="#b2dcf2" p-id="18167"></path></svg>