<?xml version="1.0" standalone="no"?><!DOCTYPE svg PUBLIC "-//W3C//DTD SVG 1.1//EN" "http://www.w3.org/Graphics/SVG/1.1/DTD/svg11.dtd"><svg t="1699853846974" class="icon" viewBox="0 0 1024 1024" version="1.1" xmlns="http://www.w3.org/2000/svg" p-id="4662" xmlns:xlink="http://www.w3.org/1999/xlink" width="200" height="200"><path d="M420.8 903.2c-34.4 0-68.8-14.4-97.6-43.2l-160-161.6c-26.4-26.4-40.8-60.8-40-97.6 0-36.8 15.2-72 40.8-96.8l373.6-373.6c8-8 16.8-9.6 22.4-9.6h310.4c17.6 0 32 14.4 32 32V464c0 5.6-1.6 14.4-9.6 22.4l-373.6 373.6c-29.6 28.8-64 43.2-98.4 43.2z m144.8-734.4L196.8 537.6c-16.8 16-26.4 39.2-26.4 63.2s9.6 47.2 26.4 64l160.8 161.6c38.4 38.4 88 38.4 127.2 0l368.8-368.8V168.8h-288z" fill="#b2dcf2" p-id="4663"></path><path d="M672.8 454.4c-57.6 0-104-46.4-104-104s46.4-104 104-104 104 46.4 104 104-46.4 104-104 104z m0-160c-31.2 0-56 24.8-56 56s24.8 56 56 56 56-24.8 56-56-24.8-56-56-56z" fill="#b2dcf2" p-id="4664"></path></svg>